<svg width="28" height="32" viewBox="0 0 28 32" fill="none" xmlns="http://www.w3.org/2000/svg">
<g id="Group">
<g id="Fill-1">
<path id="Vector" d="M14.0437 0.0695988C13.8808 -0.0231996 13.6714 -0.0231996 13.5084 0.0695988L0 7.8028V12.5587L4.50797 15.2885L4.48471 11.4529L13.78 5.83084L27.4357 14.0667V8.96279L14.036 0.0695988H14.0437Z" fill="#7FD8FF"/>
</g>
<g id="Fill-3">
<path id="Vector_2" d="M22.9279 20.6629L13.7412 26.2154L0.0078125 17.9176V23.0061L13.6869 31.9998L27.3272 24.1351V19.4024L22.9279 16.7422V20.6629Z" fill="#0074FF"/>
</g>
<path id="Vector_3" d="M13.8262 11.1592L5.77246 16.0388L13.8262 20.9185L21.8491 16.062L13.8262 11.1669V11.1592ZM13.8108 17.7015C12.9263 17.7015 12.2046 16.9823 12.2046 16.1007C12.2046 15.2191 12.9263 14.4999 13.8108 14.4999C14.6953 14.4999 15.4169 15.2191 15.4169 16.1007C15.4169 16.9823 14.6953 17.7015 13.8108 17.7015Z" fill="#00ADFF"/>
</g>
</svg>
